<svg width="402" height="79" fill="none" xmlns="http://www.w3.org/2000/svg"><path d="M99.738 46.64v-14h2.74l5.08 8.28-1.78-.02 5.16-8.26h2.64v14h-2.94V41.9c0-1.213.027-2.306.08-3.28.067-.973.174-1.933.32-2.88l.34.94-4.1 6.34h-1.34l-4-6.3.32-.98c.16.893.267 1.813.32 2.76.067.947.1 2.08.1 3.4v4.74h-2.94zM87.843 46.64v-14h9.44v2.64h-6.5V44h6.64v2.64h-9.58zm1.4-5.86v-2.56h7.08v2.56h-7.08zM80.566 46.84c-1.306 0-2.427-.233-3.36-.7-.92-.48-1.713-1.173-2.38-2.08l1.88-2.12c.653.907 1.3 1.527 1.94 1.86a4.71 4.71 0 002.1.48c.413 0 .78-.06 1.1-.18.334-.12.593-.286.78-.5.2-.213.3-.46.3-.74 0-.213-.047-.406-.14-.58a1.38 1.38 0 00-.4-.48 2.564 2.564 0 00-.62-.38c-.24-.12-.507-.22-.8-.3-.293-.08-.613-.153-.96-.22a9.696 9.696 0 01-1.96-.62 4.909 4.909 0 01-1.4-.92 3.527 3.527 0 01-.84-1.24 4.682 4.682 0 01-.26-1.6c0-.826.233-1.546.7-2.16.467-.626 1.087-1.113 1.86-1.46.773-.36 1.627-.54 2.56-.54 1.267 0 2.307.214 3.12.64a5.055 5.055 0 011.98 1.8l-1.92 1.88c-.413-.573-.886-1.006-1.42-1.3a3.513 3.513 0 00-1.72-.44c-.427 0-.806.06-1.14.18-.32.107-.567.274-.74.5-.173.214-.26.467-.26.76 0 .24.06.454.18.64.12.187.287.354.5.5.227.134.5.254.82.36.32.107.674.194 1.06.26a9.87 9.87 0 011.98.6c.587.24 1.087.534 1.5.88.427.347.754.747.98 1.2.227.454.34.96.34 1.52 0 .947-.227 1.754-.68 2.42-.453.667-1.08 1.18-1.88 1.54-.8.36-1.733.54-2.8.54zM67.664 46.76c-1.133 0-2.147-.233-3.04-.7a5.45 5.45 0 01-2.08-1.96c-.506-.84-.76-1.787-.76-2.84v-8.64h3v8.46c0 .56.127 1.067.38 1.52a3.1 3.1 0 001.06 1.06c.44.267.92.4 1.44.4a2.8 2.8 0 001.48-.4 2.942 2.942 0 001.46-2.58v-8.46h2.9v8.64c0 1.053-.253 2-.76 2.84a5.303 5.303 0 01-2.06 1.96c-.88.467-1.886.7-3.02.7zM52.889 46.84a7.48 7.48 0 01-2.86-.54 6.905 6.905 0 01-2.26-1.5 7.252 7.252 0 01-1.48-2.3c-.347-.88-.52-1.846-.52-2.9 0-1.04.173-2 .52-2.88a7.25 7.25 0 011.48-2.3 6.752 6.752 0 012.26-1.52 7.48 7.48 0 012.86-.54c1.026 0 1.966.18 2.82.54.866.36 1.62.867 2.26 1.52a6.776 6.776 0 011.48 2.32c.36.88.54 1.834.54 2.86 0 1.04-.18 2-.54 2.88a6.755 6.755 0 01-3.74 3.82c-.854.36-1.794.54-2.82.54zm0-2.84a4.04 4.04 0 001.62-.32c.493-.226.92-.533 1.28-.92.373-.4.66-.866.86-1.4.2-.533.3-1.12.3-1.76 0-.626-.1-1.206-.3-1.74-.2-.533-.487-1-.86-1.4-.36-.4-.787-.706-1.28-.92a3.833 3.833 0 00-1.62-.34c-.587 0-1.134.114-1.64.34-.494.214-.927.52-1.3.92-.36.387-.64.854-.84 1.4-.2.534-.3 1.12-.3 1.76 0 .84.173 1.594.52 2.26.36.654.84 1.174 1.44 1.56.613.374 1.32.56 2.12.56zM40.84 46.64v-14h3v14h-3zm-8.84 0v-14h3v14h-3zm1.22-5.6v-2.76h9.14v2.76h-9.14zM142.2 46.64v-14h5.76c1.014 0 1.94.174 2.78.52.84.334 1.56.814 2.16 1.44.6.614 1.06 1.354 1.38 2.22.32.854.48 1.794.48 2.82 0 1.04-.16 1.987-.48 2.84a6.436 6.436 0 01-1.38 2.22 6.391 6.391 0 01-2.16 1.44c-.826.334-1.753.5-2.78.5h-5.76zm3-2.2l-.32-.5h2.98c.6 0 1.134-.1 1.6-.3.48-.2.887-.486 1.22-.86a3.81 3.81 0 00.78-1.36c.174-.533.26-1.126.26-1.78 0-.653-.086-1.24-.26-1.76a3.596 3.596 0 00-.78-1.36 3.223 3.223 0 00-1.22-.88c-.466-.2-1-.3-1.6-.3h-3.04l.38-.46v9.56z" fill="white"/><path fill-rule="evenodd" clip-rule="evenodd" d="M122.3 32.16a7.48 7.48 0 00-2.86.54c-.867.36-1.62.86-2.26 1.5a7.247 7.247 0 00-1.48 2.3c-.347.88-.52 1.847-.52 2.9 0 1.04.173 2 .52 2.88.36.88.853 1.647 1.48 2.3a6.75 6.75 0 002.26 1.52c.88.36 1.833.54 2.86.54 1.026 0 1.966-.18 2.82-.54a6.76 6.76 0 002.26-1.52 6.78 6.78 0 001.48-2.32 7.485 7.485 0 00.54-2.845h.02v-.035c0-.84.173-1.593.52-2.26.36-.653.84-1.173 1.44-1.56.613-.373 1.32-.56 2.12-.56.587 0 1.127.107 1.62.32.493.227.92.533 1.28.92.373.4.66.867.86 1.4.2.533.3 1.12.3 1.76 0 .627-.1 1.207-.3 1.74-.2.533-.487 1-.86 1.4-.36.4-.787.707-1.28.92a3.83 3.83 0 01-1.62.34 3.97 3.97 0 01-1.625-.333 8.377 8.377 0 01-1.512 2.512c.091.042.183.082.277.121.88.36 1.833.54 2.86.54s1.967-.18 2.82-.54a6.75 6.75 0 002.26-1.52 6.78 6.78 0 001.48-2.32c.36-.88.54-1.833.54-2.86 0-1.04-.18-2-.54-2.88a6.75 6.75 0 00-3.74-3.82c-.853-.36-1.793-.54-2.82-.54a7.48 7.48 0 00-2.86.54c-.867.36-1.62.86-2.26 1.5a7.247 7.247 0 00-1.48 2.3c-.347.88-.52 1.847-.52 2.9l.003.24h-.028a4.842 4.842 0 01-.295 1.5c-.2.533-.487 1-.86 1.4-.36.4-.787.707-1.28.92a3.837 3.837 0 01-1.62.34 3.966 3.966 0 01-1.64-.34 3.845 3.845 0 01-1.3-.92 4.085 4.085 0 01-.84-1.4c-.2-.533-.3-1.12-.3-1.76 0-.84.173-1.593.52-2.26.36-.653.84-1.173 1.44-1.56.613-.373 1.32-.56 2.12-.56.586 0 1.126.107 1.62.32a9.778 9.778 0 011.497-2.489 8.034 8.034 0 00-.297-.13c-.854-.36-1.794-.54-2.82-.54z" fill="white"/><path d="M344 35h26M344 44h26" stroke="white" stroke-width="2" stroke-linecap="round" stroke-linejoin="round"/></svg>