<svg width="314" height="50" fill="none" xmlns="http://www.w3.org/2000/svg"><g filter="url(#a)"><path d="M1 24C1 10.745 11.745 0 25 0h264c13.255 0 24 10.745 24 24s-10.745 24-24 24H25C11.745 48 1 37.255 1 24z" fill="white" shape-rendering="crispEdges"/><path d="M24.63 30l-3.329-11.636h2.688l1.926 8.085h.096l2.125-8.085h2.302l2.119 8.102h.102l1.926-8.102h2.688L33.943 30h-2.397l-2.216-7.608h-.091L27.029 30H24.63zm15.145.165c-.557 0-1.053-.097-1.489-.29a2.397 2.397 0 01-1.034-.87c-.25-.386-.375-.867-.375-1.442 0-.485.09-.892.267-1.222.178-.33.42-.595.728-.796.307-.2.655-.352 1.045-.454a7.97 7.97 0 011.239-.216c.507-.053.916-.102 1.227-.148.31-.049.536-.12.676-.216a.475.475 0 00.21-.42v-.034c0-.36-.113-.638-.34-.835-.224-.197-.542-.296-.955-.296-.436 0-.782.097-1.04.29-.257.19-.428.428-.511.716l-2.239-.182c.114-.53.337-.989.67-1.375.334-.39.764-.69 1.29-.898.53-.212 1.144-.318 1.841-.318.485 0 .95.057 1.392.17.447.114.843.29 1.188.529.348.239.623.545.824.92.2.372.3.817.3 1.336V30h-2.294v-1.21h-.069c-.14.273-.327.513-.562.721a2.603 2.603 0 01-.847.483c-.33.114-.71.17-1.142.17zm.693-1.67c.356 0 .67-.07.943-.21a1.67 1.67 0 00.643-.58c.155-.243.232-.517.232-.824v-.927c-.075.05-.18.095-.312.137a5.692 5.692 0 01-.438.108c-.162.03-.325.059-.488.085l-.443.063a2.991 2.991 0 00-.745.198 1.19 1.19 0 00-.494.37.9.9 0 00-.176.568c0 .33.12.581.358.756.242.17.55.255.92.255zm8.2-3.54V30h-2.42v-8.727h2.307v1.54h.102c.193-.508.517-.91.972-1.205.454-.3 1.005-.449 1.653-.449.606 0 1.134.133 1.585.398.45.265.801.644 1.051 1.136.25.489.375 1.072.375 1.75V30h-2.42v-5.125c.004-.534-.133-.95-.41-1.25-.276-.303-.657-.454-1.141-.454-.326 0-.614.07-.864.21-.246.14-.44.344-.58.613-.136.265-.206.585-.21.96zm11.855-3.682v1.818h-5.256v-1.818h5.256zm-4.063-2.091h2.42v8.136c0 .224.035.398.103.523a.564.564 0 00.284.256c.125.049.27.073.432.073.114 0 .227-.009.341-.028l.261-.051.381 1.801a6.772 6.772 0 01-.511.13 4.09 4.09 0 01-.801.097c-.584.023-1.095-.055-1.534-.233a2.141 2.141 0 01-1.018-.83c-.242-.374-.361-.848-.357-1.42v-8.454zm10.197 14.09c-.307 0-.595-.024-.864-.073a3.144 3.144 0 01-.659-.176l.546-1.807c.284.087.54.134.767.142a.975.975 0 00.596-.16c.17-.113.31-.306.415-.579l.142-.369-3.13-8.977h2.545l1.807 6.409h.09l1.825-6.41h2.562l-3.392 9.671c-.163.47-.384.879-.665 1.227a2.726 2.726 0 01-1.05.813c-.425.193-.936.29-1.535.29zm11.223-3.101c-.883 0-1.646-.188-2.29-.563a3.85 3.85 0 01-1.483-1.58c-.349-.678-.523-1.464-.523-2.357 0-.902.174-1.69.523-2.364a3.804 3.804 0 011.483-1.58c.644-.378 1.407-.568 2.29-.568.882 0 1.644.19 2.284.568.644.375 1.14.902 1.488 1.58.349.674.523 1.462.523 2.364 0 .893-.174 1.68-.523 2.357a3.838 3.838 0 01-1.488 1.58c-.64.375-1.402.563-2.284.563zm.011-1.875c.402 0 .737-.114 1.006-.341.269-.231.471-.546.608-.944.14-.397.21-.85.21-1.358 0-.507-.07-.96-.21-1.357-.137-.398-.34-.713-.608-.944-.27-.23-.604-.346-1.006-.346-.405 0-.746.115-1.023.346-.272.231-.479.546-.619.944-.136.397-.204.85-.204 1.357 0 .508.068.96.204 1.358.14.398.347.713.62.944.276.227.617.34 1.022.34zm11.135-2.012v-5.011h2.42V30h-2.324v-1.585h-.09a2.577 2.577 0 01-.984 1.233c-.454.31-1.01.466-1.664.466-.584 0-1.097-.133-1.54-.398a2.734 2.734 0 01-1.04-1.13c-.246-.49-.371-1.075-.375-1.756v-5.557h2.42v5.125c.004.515.142.922.415 1.221.273.3.639.45 1.097.45.291 0 .564-.067.818-.2a1.56 1.56 0 00.614-.602c.159-.265.236-.593.233-.983zM93.062 30v-8.727h2.347v1.523h.09c.16-.542.427-.951.802-1.228.375-.28.807-.42 1.295-.42a3.65 3.65 0 01.762.085v2.148a3.157 3.157 0 00-.472-.091c-.2-.027-.384-.04-.551-.04-.356 0-.674.078-.955.233a1.715 1.715 0 00-.659.636c-.159.273-.238.587-.238.944V30h-2.42zm13.553.17c-.882 0-1.645-.187-2.289-.562a3.84 3.84 0 01-1.483-1.58c-.349-.678-.523-1.464-.523-2.357 0-.902.174-1.69.523-2.364a3.795 3.795 0 011.483-1.58c.644-.378 1.407-.568 2.289-.568.883 0 1.644.19 2.284.568a3.79 3.79 0 011.489 1.58c.349.674.523 1.462.523 2.364 0 .893-.174 1.68-.523 2.357a3.835 3.835 0 01-1.489 1.58c-.64.375-1.401.563-2.284.563zm.012-1.875c.401 0 .736-.113 1.005-.34.269-.231.472-.546.608-.944.14-.397.211-.85.211-1.358 0-.507-.071-.96-.211-1.357-.136-.398-.339-.713-.608-.944-.269-.23-.604-.346-1.005-.346-.406 0-.747.115-1.023.346-.273.231-.479.546-.619.944-.137.397-.205.85-.205 1.357 0 .508.068.96.205 1.358.14.398.346.713.619.944.276.227.617.34 1.023.34zM113.668 30l-2.375-8.727h2.448l1.353 5.863h.079l1.409-5.863h2.404l1.432 5.83h.073l1.33-5.83h2.443L121.895 30h-2.563l-1.5-5.489h-.108l-1.5 5.489h-2.556zm13.988-5.046V30h-2.421v-8.727h2.307v1.54h.102c.194-.508.517-.91.972-1.205.455-.3 1.006-.449 1.653-.449.606 0 1.135.133 1.586.398.45.265.801.644 1.051 1.136.25.489.375 1.072.375 1.75V30h-2.421v-5.125c.004-.534-.132-.95-.409-1.25-.276-.303-.657-.454-1.142-.454-.326 0-.613.07-.863.21a1.46 1.46 0 00-.58.613c-.136.265-.206.585-.21.96zM142.422 30h-4.125V18.364h4.159c1.171 0 2.178.233 3.023.698a4.716 4.716 0 011.949 1.995c.458.867.687 1.905.687 3.114 0 1.212-.229 2.253-.687 3.125a4.724 4.724 0 01-1.961 2.005c-.848.466-1.863.699-3.045.699zm-1.665-2.108h1.563c.727 0 1.339-.129 1.835-.386.5-.262.875-.665 1.125-1.21.254-.55.381-1.258.381-2.125 0-.86-.127-1.563-.381-2.108-.25-.546-.623-.947-1.119-1.205-.497-.258-1.108-.386-1.836-.386h-1.568v7.42zm12.792 2.279c-.897 0-1.67-.182-2.318-.546a3.731 3.731 0 01-1.488-1.557c-.349-.674-.523-1.471-.523-2.392 0-.898.174-1.685.523-2.363a3.863 3.863 0 011.471-1.586c.637-.378 1.383-.568 2.239-.568.576 0 1.112.093 1.608.279.5.181.935.456 1.307.823.375.368.666.83.875 1.387.208.553.312 1.2.312 1.943v.665h-7.369v-1.5h5.091a1.85 1.85 0 00-.228-.927 1.622 1.622 0 00-.63-.63 1.799 1.799 0 00-.926-.233c-.368 0-.694.085-.978.256-.28.166-.5.392-.659.676-.159.28-.24.593-.244.937v1.426c0 .432.079.805.239 1.12.162.314.392.556.687.727.296.17.646.256 1.051.256.269 0 .515-.038.739-.114.223-.076.415-.19.574-.34.159-.152.28-.338.363-.558l2.239.148a3.063 3.063 0 01-.699 1.41c-.348.397-.799.707-1.352.93-.549.22-1.184.33-1.904.33zm12.527-6.41l-2.216.137a1.146 1.146 0 00-.244-.512 1.297 1.297 0 00-.495-.369 1.675 1.675 0 00-.721-.142c-.375 0-.691.08-.949.239-.258.155-.386.363-.386.625 0 .208.083.384.25.528.166.144.452.26.858.347l1.579.318c.849.174 1.481.454 1.898.84.417.387.625.895.625 1.524 0 .571-.169 1.073-.506 1.505-.333.432-.791.77-1.375 1.012-.579.238-1.248.358-2.005.358-1.156 0-2.076-.241-2.762-.722a2.813 2.813 0 01-1.199-1.977l2.381-.125c.072.352.246.62.523.806.276.182.63.273 1.062.273.424 0 .765-.081 1.023-.244.261-.167.394-.38.398-.642a.669.669 0 00-.279-.54c-.182-.144-.462-.254-.841-.33l-1.511-.3c-.852-.171-1.487-.467-1.903-.887-.413-.42-.62-.957-.62-1.608 0-.56.152-1.044.455-1.449.307-.405.737-.718 1.29-.937.556-.22 1.208-.33 1.954-.33 1.102 0 1.97.233 2.602.699.637.466 1.008 1.1 1.114 1.903zM167.479 30v-8.727h2.42V30h-2.42zm1.216-9.852c-.36 0-.669-.12-.926-.358a1.16 1.16 0 01-.381-.87c0-.333.127-.619.381-.858.257-.242.566-.363.926-.363.36 0 .667.121.92.363.258.24.387.525.387.858 0 .338-.129.627-.387.87-.253.238-.56.358-.92.358zm6.755 13.307c-.784 0-1.456-.108-2.017-.324-.557-.212-1-.502-1.329-.87a2.664 2.664 0 01-.642-1.238l2.238-.301c.068.174.176.337.324.488.148.152.343.273.585.364.247.095.546.142.898.142.527 0 .96-.129 1.301-.387.345-.253.517-.68.517-1.278v-1.596h-.102a2.299 2.299 0 01-.477.687 2.406 2.406 0 01-.818.529c-.334.136-.732.204-1.194.204a3.579 3.579 0 01-1.789-.454c-.535-.307-.961-.775-1.279-1.404-.314-.633-.471-1.432-.471-2.398 0-.988.161-1.814.483-2.477.321-.663.75-1.159 1.284-1.489a3.314 3.314 0 011.767-.494c.488 0 .897.083 1.227.25.329.163.595.367.795.614.205.242.362.48.472.716h.091v-1.466h2.403v8.812c0 .743-.182 1.364-.545 1.864-.364.5-.868.875-1.512 1.125-.64.254-1.376.38-2.21.38zm.051-5.398c.391 0 .72-.097.989-.29.273-.197.481-.477.625-.84.148-.368.222-.808.222-1.319 0-.511-.072-.955-.216-1.33-.144-.378-.353-.672-.625-.88-.273-.209-.604-.313-.995-.313-.397 0-.733.108-1.005.324-.273.212-.479.508-.62.887-.14.378-.21.816-.21 1.312 0 .504.07.94.21 1.307.144.363.351.646.62.846.272.197.608.296 1.005.296zm8.243-3.102V30h-2.421v-8.727h2.307v1.54h.102c.194-.508.518-.91.972-1.205.455-.3 1.006-.449 1.653-.449.607 0 1.135.133 1.586.398.45.265.801.644 1.051 1.136.25.489.375 1.072.375 1.75V30h-2.421v-5.125c.004-.534-.132-.95-.409-1.25-.276-.303-.657-.454-1.142-.454-.325 0-.613.07-.863.21a1.46 1.46 0 00-.58.613c-.136.265-.206.585-.21.96zm9.292 1.556v-.193c.004-.663.063-1.191.176-1.585.118-.394.288-.712.512-.955a3.91 3.91 0 01.806-.659 5.38 5.38 0 00.631-.471c.186-.163.333-.343.443-.54.11-.2.165-.424.165-.67 0-.262-.062-.491-.187-.688a1.249 1.249 0 00-.506-.454 1.506 1.506 0 00-.693-.16c-.247 0-.479.055-.699.165-.22.106-.4.265-.54.477-.14.209-.216.468-.227.779h-2.318c.019-.758.2-1.383.545-1.875a3.126 3.126 0 011.369-1.108 4.684 4.684 0 011.881-.37c.754 0 1.42.125 2 .375.58.247 1.034.605 1.364 1.074.329.47.494 1.036.494 1.7 0 .442-.074.836-.222 1.181a2.87 2.87 0 01-.608.91c-.261.26-.57.497-.926.71a3.75 3.75 0 00-.738.556c-.19.193-.332.417-.426.67a2.891 2.891 0 00-.143.938v.193h-2.153zm1.125 3.637c-.379 0-.703-.133-.972-.398a1.31 1.31 0 01-.392-.966c-.003-.371.127-.69.392-.954.269-.266.593-.398.972-.398.36 0 .676.132.949.398a1.304 1.304 0 01.216 1.642c-.125.204-.29.369-.494.494a1.293 1.293 0 01-.671.182z" fill="black"/><circle cx="289" cy="24" r="16" fill="color(display-p3 1.0000 0.8471 0.0000)"/><path d="M291.5 29.549l-1.188-1.157 3.834-3.802h-13.479v-1.653h13.479l-3.813-3.802 1.167-1.157 5.833 5.785-5.833 5.786z" fill="black"/></g><defs><filter id="a" x="0" y="0" width="314" height="50" filterUnits="userSpaceOnUse" color-interpolation-filters="sRGB"><feFlood flood-opacity="0" result="BackgroundImageFix"/><feColorMatrix in="SourceAlpha" values="0 0 0 0 0 0 0 0 0 0 0 0 0 0 0 0 0 0 127 0" result="hardAlpha"/><feOffset dy="1"/><feGaussianBlur stdDeviation=".5"/><feComposite in2="hardAlpha" operator="out"/><feColorMatrix values="0 0 0 0 0.711491 0 0 0 0 0.711491 0 0 0 0 0.711491 0 0 0 0.25 0"/><feBlend in2="BackgroundImageFix" result="effect1_dropShadow_180_248"/><feBlend in="SourceGraphic" in2="effect1_dropShadow_180_248" result="shape"/></filter></defs></svg>